<?xml version="1.0" standalone="no"?>
<!DOCTYPE svg PUBLIC "-//W3C//DTD SVG 1.1//EN" "http://www.w3.org/Graphics/SVG/1.1/DTD/svg11.dtd"><svg xmlns="http://www.w3.org/2000/svg" style="background-color:#FFF" width="400" height="400"><path stroke="black" fill="none" stroke-width="1" d="M395.88, 95L395.36, 96.78L394.17, 100.67L392.86, 104.63L391.57, 108.24L390.98, 109.78L390.44, 111.06L389.98, 112.04L389.6, 112.67L388.88, 113.47L388.15, 114L387.43, 114.25L386.77, 114.23L386.19, 113.95L385.74, 113.42L385.44, 112.63L385.33, 111.6L385.52, 110.19L385.93, 108.62L387.23, 105.5L388.01, 104.16L388.78, 103.13L389.51, 102.5L390.13, 102.4L390.38, 102.35L390.71, 102.04L391.12, 101.48L391.58, 100.7L392.63, 98.61L393.73, 96M393.73, 96L394.12, 95"/><path stroke="black" fill="none" stroke-width="1" d="M399, 102.28L398.48, 104.1L397.47, 106.67L396.88, 107.95L396.36, 109.01L395.92, 109.85L395.55, 110.46L395.25, 110.86L395.03, 111.03L394.89, 110.99L394.82, 110.73L394.82, 110.26L394.91, 109.59L395.07, 108.7L395.31, 107.6L395.63, 106.31L396.03, 104.8L396.51, 103.1L397.07, 101.2M397.07, 101.2L397.71, 99.02L398.23, 97.35L398.66, 96.17L399, 95.47"/><path stroke="black" fill="none" stroke-width="1" d="M362.8, 98.67L362.92, 97.26L363.1, 96.65L363.32, 96.81L363.6, 97.73L363.74, 99L363.58, 100.63L363.21, 102.42L362.67, 104.13L362.09, 105.8L361.77, 107.48L361.69, 108.99L361.87, 110.13L362.01, 110.8L362.01, 111.64L361.64, 113.68L360.88, 116L359.87, 118.33L358.73, 120.41L357.59, 121.98L357.07, 122.49L356.59, 122.78L356.19, 122.8L355.87, 122.53L355.57, 121.75L355.47, 120.88L355.57, 120.04L355.87, 119.33L356.1, 118.95L356.4, 118.31L357.12, 116.43L357.91, 114.01L358.67, 111.33L359.42, 108.62L360.22, 106.23L360.94, 104.4L361.23, 103.75L361.47, 103.33L361.96, 102.6L362.38, 101.5L362.69, 100.15L362.8, 98.67"/><path stroke="black" fill="none" stroke-width="1" d="M208, 100.13L213.18, 99.45L218.23, 99.09L222.95, 99.04L227.2, 99.28L229.09, 99.51L230.8, 99.81L232.3, 100.17L233.58, 100.6L234.6, 101.09L235.37, 101.65L235.84, 102.26L236, 102.93L235.86, 103.44L235.45, 103.55L234.82, 103.29L234, 102.67L232.84, 102.04L231.15, 101.59L228.95, 101.33L226.28, 101.24L223.18, 101.31L219.69, 101.56L215.83, 101.96L211.65, 102.52L207.18, 103.22L202.46, 104.07L197.52, 105.05L192.39, 106.17L181.75, 108.79L170.8, 111.87L169.09, 112.32L167.62, 112.59L166.44, 112.69L165.63, 112.63L165.26, 112.44L165.4, 112.13L166.11, 111.71L167.47, 111.2L168.64, 110.83L170.02, 110.37L171.42, 109.85L172.67, 109.33L173.77, 108.91L175.26, 108.42L177.07, 107.86L179.16, 107.24L183.99, 105.89L189.33, 104.48L194.8, 103.1L200, 101.85L202.38, 101.31L204.53, 100.83L206.43, 100.43L208, 100.13"/><path stroke="black" fill="none" stroke-width="1" d="M382, 101.33L383.06, 100.86L383.97, 100.48L384.62, 100.23L384.93, 100.13L385.1, 100.15L385.37, 100.38L386, 101.33L386.07, 101.88L385.53, 102.28L384.5, 102.51L383.07, 102.53L381.97, 102.53L381.16, 102.5L380.63, 102.43L380.38, 102.33L380.4, 102.18L380.69, 101.97L381.22, 101.69L382, 101.33"/><path stroke="black" fill="none" stroke-width="1" d="M356.13, 103.6L356.26, 103.15L356.43, 103.17L356.66, 103.64L356.93, 104.53L357.07, 105.59L356.9, 106.68L356.48, 107.7L355.87, 108.53L355.16, 109.1L354.83, 109.17L354.85, 108.68L355.2, 107.6L355.82, 105.4L356.04, 104.38L356.13, 103.6"/><path stroke="black" fill="none" stroke-width="1" d="M369.87, 107.07L371.56, 105.39L373.15, 104.02L374.46, 103.07L374.96, 102.8L375.33, 102.67L375.46, 102.79L375.34, 103.14L374.99, 103.69L374.45, 104.42L373.73, 105.3L372.84, 106.32L370.67, 108.67L368.35, 111.01L366.37, 112.92L365.57, 113.65L364.93, 114.2L364.49, 114.55L364.27, 114.67L364.11, 114.52L364.24, 114.08L364.63, 113.39L365.27, 112.47L366.13, 111.35L367.19, 110.05L368.45, 108.62L369.87, 107.07"/><path stroke="black" fill="none" stroke-width="1" d="M368.67, 114.27L370.84, 112.05L372.77, 110.17L374.49, 108.63L376.02, 107.4L377.37, 106.47L378.59, 105.83L379.68, 105.45L380.67, 105.33L381.97, 105.38L383.03, 105.52L383.74, 105.73L384, 106L383.93, 106.28L383.74, 106.81L383.43, 107.55L383.02, 108.48L381.92, 110.78L380.53, 113.47L379.25, 116.27L378.25, 118.88L377.63, 121.02L377.48, 121.82L377.47, 122.4L377.57, 123.83L377.59, 125.02L377.51, 125.99L377.33, 126.75L377.06, 127.32L376.68, 127.71L375.6, 128L374.74, 128.26L373.83, 128.97L372.98, 130.02L372.27, 131.33L371.43, 132.7L370.37, 133.75L369.15, 134.43L367.87, 134.67L367.06, 134.64L366.45, 134.54L366, 134.35L365.72, 134.05L365.57, 133.62L365.56, 133.04L365.66, 132.28L365.87, 131.33L366.11, 130.35L366.22, 129.57L366.19, 128.99L366, 128.57L365.64, 128.28L365.08, 128.11L364.32, 128.02L363.33, 128L361.61, 127.81L360.55, 127.24L360.27, 126.8L360.16, 126.26L360.22, 125.6L360.45, 124.83L360.86, 123.95L361.44, 122.95L362.19, 121.82L363.13, 120.58L364.24, 119.2L365.53, 117.69L367.01, 116.05L368.67, 114.27"/><path stroke="black" fill="none" stroke-width="1" d="M376, 115.47L375.02, 117.94L374.13, 119.89L373.28, 121.39L372.42, 122.48L371.49, 123.23L370.43, 123.7L369.2, 123.93L367.73, 124L363.47, 124L367.33, 120L368.88, 118.56L370.38, 117.52L371.66, 116.94L372.16, 116.86L372.53, 116.93L373.03, 117.15L373.3, 117.2L373.32, 117.05L373.07, 116.67L372.79, 116.13L372.77, 115.4L372.99, 114.57L373.47, 113.73L374.36, 112.81L375.12, 112.24L375.73, 112.01L376.18, 112.1L376.45, 112.5L376.52, 113.21L376.38, 114.2L376, 115.47"/><path stroke="black" fill="none" stroke-width="1" d="M370.8, 128.4L370.16, 128.91L369.55, 129.16L369.01, 129.18L368.58, 129L368.3, 128.64L368.19, 128.14L368.3, 127.51L368.67, 126.8L369.08, 126.3L369.65, 126.02L370.3, 125.96L370.93, 126.13L371.38, 126.58L371.52, 127.12L371.33, 127.73L370.8, 128.4"/><path stroke="black" fill="none" stroke-width="1" d="M219.73, 107.6L219.22, 107.5L218.99, 107.4L219.02, 107.31L219.3, 107.23L219.82, 107.17L220.56, 107.11L221.51, 107.08L222.67, 107.07L223.82, 107.08L224.78, 107.11L225.52, 107.17L226.05, 107.23L226.34, 107.31L226.4, 107.4L226.2, 107.5L225.73, 107.6L224.29, 107.75L222.68, 107.8L221.1, 107.75L219.73, 107.6"/><path stroke="black" fill="none" stroke-width="1" d="M238, 111.87L237.75, 110.34L237.77, 109.19L238.01, 108.42L238.4, 108.05L238.89, 108.1L239.42, 108.59L239.95, 109.52L240.4, 110.93L240.49, 111.59L240.46, 112.44L240.11, 114.56L239.46, 117.04L238.6, 119.58L237.64, 121.92L236.69, 123.78L236.24, 124.44L235.84, 124.87L235.49, 125.05L235.2, 124.93L235.09, 124.33L235.33, 123.22L235.88, 121.73L236.67, 120L237.51, 117.96L238.03, 115.88L238.2, 113.83L238, 111.87"/><path stroke="black" fill="none" stroke-width="1" d="M210, 110.93L213.7, 110.44L215.34, 110.21L216.8, 110L218.03, 109.81L219, 109.66L219.67, 109.54L220, 109.47L220.92, 109.47L222.34, 109.75L224.08, 110.22L225.93, 110.82L227.71, 111.47L229.23, 112.11L230.27, 112.67L230.56, 112.89L230.67, 113.07L230.52, 113.42L230.11, 114L229.46, 114.78L228.61, 115.74L226.41, 118.03L223.78, 120.63L220.97, 123.3L218.24, 125.78L215.83, 127.83L214.82, 128.61L214, 129.2L213.57, 129.48L213.39, 129.52L213.43, 129.35L213.68, 128.98L214.15, 128.43L214.81, 127.72L215.65, 126.86L216.67, 125.87L218.71, 123.78L220.33, 121.85L220.93, 121.01L221.35, 120.3L221.58, 119.73L221.6, 119.33L221.5, 118.91L221.57, 118.68L221.79, 118.68L222.13, 118.93L222.64, 119.21L223.32, 119.23L224.06, 119.01L224.8, 118.53L225.62, 117.71L225.87, 116.93L225.51, 116.06L224.53, 114.93L223.86, 114.39L223.04, 113.95L222.02, 113.6L220.77, 113.35L219.25, 113.18L217.45, 113.08L215.31, 113.04L212.8, 113.07L208.92, 113.23L205.33, 113.5L203.78, 113.65L202.45, 113.82L201.4, 113.98L200.67, 114.13L199.54, 114.41L198.95, 114.42L198.89, 114.15L199.33, 113.6L199.81, 113.28L200.62, 112.94L201.72, 112.58L203.07, 112.22L206.31, 111.52L210, 110.93"/><path stroke="black" fill="none" stroke-width="1" d="M158.8, 112.27L160.1, 111.77L161.33, 111.48L162.36, 111.42L163.07, 111.6L163.6, 112.07L163.72, 112.6L163.41, 113.17L162.68, 113.8L161.54, 114.47L159.97, 115.2L157.99, 115.97L155.6, 116.8L153.12, 117.62L150.47, 118.53L144.8, 120.55L138.92, 122.72L133.18, 124.92L127.91, 127L125.56, 127.97L123.44, 128.86L121.62, 129.65L120.12, 130.34L118.99, 130.91L118.27, 131.33L117.09, 131.95L115.85, 132.37L114.69, 132.53L113.73, 132.4L112.87, 132.27L111.95, 132.47L111.05, 132.96L110.27, 133.73L109.64, 134.32L108.58, 135.06L107.17, 135.93L105.47, 136.89L101.44, 138.99L97, 141.12L92.66, 143.04L90.69, 143.85L88.93, 144.51L87.45, 145.01L86.32, 145.31L85.59, 145.39L85.33, 145.2L85.47, 143.85L85.85, 142.63L86.46, 141.54L87.27, 140.62L88.25, 139.87L89.38, 139.33L90.64, 139.01L92, 138.93L93.77, 138.85L95.55, 138.45L97.16, 137.83L98.4, 137.07L100.6, 135.45L103.08, 134.13L105.39, 133.32L106.34, 133.16L107.07, 133.2L107.51, 133.08L107.98, 132.72L108.44, 132.13L108.8, 131.33L109.47, 130.52L110.75, 129.75L112.46, 129.1L114.4, 128.67L116.68, 128.23L119.12, 127.58L121.43, 126.81L123.33, 126L126.56, 124.56L130.12, 123.07L137.4, 120.27L140.73, 119.09L143.58, 118.16L144.77, 117.81L145.76, 117.55L146.54, 117.39L147.07, 117.33L148.05, 117.12L149.1, 116.57L150.1, 115.76L150.93, 114.8L151.64, 113.89L152.47, 113.2L153.3, 112.81L154, 112.8L154.82, 112.98L156, 112.93L157.37, 112.69L158.8, 112.27"/><path stroke="black" fill="none" stroke-width="1" d="M381.47, 116.8L382.13, 115.47L382.7, 114.37L383.12, 113.61L383.33, 113.33L383.37, 113.48L383.38, 113.89L383.37, 114.54L383.33, 115.4L383.18, 117.61L382.93, 120.27L382.64, 123.07L382.26, 125.48L381.79, 127.5L381.23, 129.13L380.59, 130.4L379.86, 131.29L379.04, 131.82L378.13, 132L377.23, 132.26L376.18, 132.97L375.11, 134.02L374.13, 135.33L372.83, 136.86L371.25, 137.93L369.47, 138.56L367.55, 138.73L365.56, 138.46L363.58, 137.73L361.66, 136.56L359.87, 134.93L358.51, 133.39L357.37, 131.9L356.45, 130.5L355.78, 129.25L355.38, 128.19L355.27, 127.38L355.47, 126.85L356, 126.67L356.55, 126.83L356.97, 127.27L357.24, 127.9L357.33, 128.67L357.55, 129.49L358.17, 130.12L359.13, 130.52L360.4, 130.67L361.89, 130.81L362.83, 131.28L363.33, 132.19L363.47, 133.6L363.7, 135.14L364.42, 136.27L365.53, 136.98L366.92, 137.27L368.47, 137.13L370.09, 136.56L371.65, 135.56L373.07, 134.13L374.2, 132.75L375.32, 131.65L376.31, 130.93L377.07, 130.67L377.77, 130.34L378.53, 129.47L379.29, 128.21L379.98, 126.72L380.54, 125.14L380.91, 123.64L381.02, 122.36L380.8, 121.47L380.57, 120.72L380.63, 119.58L380.95, 118.22L381.47, 116.8"/><path stroke="black" fill="none" stroke-width="1" d="M222.67, 129.2L224.96, 126.96L227.13, 124.89L229.1, 123.01L230.85, 121.38L232.31, 120.05L233.45, 119.06L234.2, 118.45L234.53, 118.27L234.67, 118.49L234.58, 118.9L234.28, 119.49L233.79, 120.22L232.33, 122.06L230.32, 124.28L227.9, 126.74L225.21, 129.27L222.4, 131.74L219.6, 134L218.15, 135.12L216.89, 136.09L215.84, 136.89L215, 137.52L214.37, 137.98L213.95, 138.25L213.75, 138.32L213.78, 138.2L214.04, 137.87L214.54, 137.33L215.27, 136.57L216.24, 135.57L217.47, 134.35L218.94, 132.88L220.67, 131.17L222.67, 129.2"/><path stroke="black" fill="none" stroke-width="1" d="M152.67, 122.27L154.97, 121.43L156.74, 120.83L158.03, 120.46L158.93, 120.3L159.51, 120.35L159.83, 120.62L159.97, 121.08L160, 121.73L159.84, 123.19L159.35, 124.46L158.52, 125.56L157.37, 126.48L155.87, 127.24L154.04, 127.83L151.86, 128.26L149.33, 128.53L147.19, 128.79L144.83, 129.23L142.29, 129.85L139.62, 130.63L134.06, 132.58L128.47, 134.93L123.17, 137.53L120.74, 138.88L118.51, 140.23L116.52, 141.57L114.81, 142.88L113.42, 144.14L112.4, 145.33L111.34, 146.79L110.56, 147.75L110.06, 148.18L109.82, 148.07L109.83, 147.37L110.09, 146.08L110.6, 144.17L111.33, 141.6L111.88, 140.38L112.89, 139.2L114.47, 137.98L116.75, 136.67L118.18, 135.96L119.83, 135.21L121.71, 134.4L123.84, 133.54L126.22, 132.61L128.88, 131.6L131.82, 130.51L135.07, 129.33L139.03, 127.97L140.78, 127.42L142.3, 126.97L143.56, 126.62L144.52, 126.41L145.12, 126.33L145.33, 126.4L145.42, 126.65L145.67, 126.62L146.01, 126.31L146.4, 125.73L146.7, 125.35L147.19, 124.93L148.63, 124L150.52, 123.07L152.67, 122.27"/><path stroke="black" fill="none" stroke-width="1" d="M357.33, 242L358.53, 238.25L359.8, 234.29L362.4, 226.18L363.64, 222.29L364.8, 218.66L365.82, 215.41L366.67, 212.67L367.62, 209.64L368.65, 206.34L369.76, 202.82L370.93, 199.12L373.39, 191.38L375.9, 183.5L378.35, 175.86L379.51, 172.24L380.62, 168.83L381.65, 165.66L382.58, 162.8L383.42, 160.27L384.13, 158.13L384.72, 156.24L385.18, 154.56L385.52, 153.08L385.73, 151.82L385.82, 150.76L385.78, 149.9L385.62, 149.25L385.33, 148.8L384.73, 148.33L384.32, 148.3L384.08, 148.72L384, 149.6L383.83, 150.19L383.35, 151.02L382.58, 152.06L381.57, 153.27L380.34, 154.6L378.94, 156.01L375.73, 158.93L373.7, 160.68L371.81, 162.29L368.41, 165.08L365.49, 167.35L362.98, 169.12L360.85, 170.43L359.03, 171.33L357.47, 171.84L356.13, 172L354.83, 171.78L353.5, 171.16L352.15, 170.18L350.8, 168.88L349.49, 167.31L348.22, 165.5L345.9, 161.35L344.02, 156.79L342.75, 152.14L342.39, 149.9L342.24, 147.77L342.33, 145.79L342.67, 144L344.04, 140.23L344.91, 138.46L345.78, 136.93L346.61, 135.75L347.3, 135.04L347.79, 134.9L347.93, 135.09L348, 135.47L347.96, 135.87L347.84, 136.48L347.4, 138.15L346.76, 140.25L346, 142.53L345.39, 144.41L345, 145.96L344.87, 147.39L345.03, 148.88L345.53, 150.63L346.41, 152.83L347.01, 154.15L347.71, 155.66L348.53, 157.38L349.47, 159.33L354.8, 170.53L361.6, 165.6L366.28, 162.13L370.42, 158.8L374.02, 155.64L377.08, 152.63L379.6, 149.79L381.57, 147.11L382.99, 144.6L383.87, 142.27L384.54, 139.81L385.24, 137.69L385.94, 135.96L386.58, 134.67L387.15, 133.88L387.6, 133.64L387.89, 134.02L388, 135.07L388.14, 135.86L388.5, 136.44L389.03, 136.8L389.63, 136.93L390.25, 136.85L390.81, 136.53L391.24, 135.98L391.47, 135.2L391.52, 134.85L391.65, 134.31L392.15, 132.8L392.87, 130.89L393.73, 128.8M362.14, 242L364.21, 235.51L366.4, 228.67L367.55, 225.08L368.77, 221.25L371.43, 212.98L374.27, 204.14L377.22, 195L380.17, 185.83L383.03, 176.92L385.72, 168.52L386.96, 164.61L388.13, 160.93L389.64, 156.24L391, 151.94L392.23, 148.02L393.32, 144.47L394.29, 141.28L395.14, 138.42L395.86, 135.88L396.47, 133.65L396.96, 131.71L397.35, 130.05L397.63, 128.65L397.81, 127.5L397.89, 126.58L397.88, 125.88L397.78, 125.38L397.6, 125.07L397.16, 124.72L396.73, 124.58L396.31, 124.67L395.87, 124.98L395.4, 125.54L394.9, 126.36L394.35, 127.44L393.73, 128.8M399, 138.24L398.94, 138.44L398.71, 139.2L398.39, 140.26L397.98, 141.61L397.48, 143.22L396.9, 145.08L396.25, 147.17L395.53, 149.47L393.92, 154.63L392.09, 160.42L390.11, 166.71L388, 173.33L386.88, 176.86L385.67, 180.65L384.38, 184.69L383.02, 188.93L380.17, 197.87L377.18, 207.2L374.17, 216.63L371.22, 225.87L368.42, 234.65L367.11, 238.77L366.08, 242M399, 151.73L398.97, 152.02L398.53, 154.95L397.92, 158L397.1, 161.3L396.04, 164.97L394.7, 169.17L393.93, 171.49L393.07, 174L392.4, 175.97L391.62, 178.3L390.74, 180.98L389.75, 183.95L388.68, 187.21L387.53, 190.71L386.31, 194.43L385.03, 198.33L382.35, 206.58L379.57, 215.21L374, 232.67L372.75, 236.57L371.57, 240.26L371, 242"/><path stroke="black" fill="none" stroke-width="1" d="M189.73, 132.13L188.6, 131.47L188.18, 131.05L188.44, 130.8L189.33, 130.67L190.34, 131.01L191.47, 131.95L192.6, 133.31L193.6, 134.93L194.28, 136.25L195.06, 137.82L196.84, 141.53L198.78, 145.72L200.72, 150.02L202.5, 154.07L203.28, 155.9L203.97, 157.53L204.54, 158.92L204.97, 160.02L205.24, 160.8L205.33, 161.2L205.07, 161.26L204.46, 160.76L203.62, 159.83L202.67, 158.65L200.87, 156.12L200.26, 155.08L200, 154.4L199.92, 154.03L199.69, 153.35L199.33, 152.41L198.85, 151.23L197.58, 148.36L196, 145.07L194.48, 141.74L193.2, 138.78L192.7, 137.54L192.33, 136.5L192.08, 135.71L192, 135.2L191.81, 134.42L191.32, 133.57L190.59, 132.76L189.73, 132.13"/><path stroke="black" fill="none" stroke-width="1" d="M184.13, 133.87L184.96, 133.01L185.62, 132.65L186.1, 132.76L186.4, 133.33L186.44, 134.05L186.09, 134.88L185.44, 135.75L184.55, 136.6L182.33, 138.02L181.14, 138.47L180, 138.67L179.49, 138.73L178.77, 138.93L176.87, 139.63L174.56, 140.69L172.13, 142L170.06, 143.16L168.33, 144.06L166.92, 144.7L165.82, 145.08L164.99, 145.23L164.43, 145.13L164.1, 144.81L164, 144.27L164.17, 144.02L164.65, 143.64L165.4, 143.16L166.39, 142.58L168.88, 141.24L171.8, 139.78L174.82, 138.37L177.61, 137.16L178.82, 136.68L179.85, 136.32L180.66, 136.08L181.2, 136L181.81, 135.84L182.57, 135.38L183.37, 134.71L184.13, 133.87"/><path stroke="black" fill="none" stroke-width="1" d="M142.1, 242L142.12, 241.98L145.08, 239.95L148.4, 238L150.3, 236.9L151.87, 235.87L152.94, 235.04L153.23, 234.74L153.33, 234.53L153.09, 234.21L152.37, 233.67L151.25, 232.93L149.77, 232.03L147.97, 230.99L145.91, 229.85L141.2, 227.33L138.78, 226.06L136.54, 224.85L134.53, 223.73L132.8, 222.73L131.4, 221.89L130.36, 221.22L129.75, 220.76L129.6, 220.53L130.02, 220.58L130.92, 220.9L132.26, 221.46L133.98, 222.23L136.02, 223.2L138.32, 224.32L143.47, 226.93L156.8, 233.87L159.87, 231.07L160.59, 230.43L161.54, 229.66L163.92, 227.82L166.67, 225.8L169.47, 223.87L171.79, 222.21L173.58, 220.84L174.85, 219.72L175.6, 218.83L175.85, 218.16L175.62, 217.68L174.91, 217.37L173.73, 217.2L170.1, 217L166.82, 216.79L163.89, 216.57L161.27, 216.34L158.95, 216.07L156.91, 215.78L155.11, 215.45L153.55, 215.08L152.19, 214.66L151.02, 214.19L149.15, 213.06L147.76, 211.63L146.67, 209.87L145.88, 208.64L145.13, 207.62L144.49, 206.92L144, 206.67L143.76, 206.43L143.56, 205.76L143.38, 204.72L143.23, 203.36L143.11, 201.75L143.03, 199.95L142.95, 196.02L143, 192.04L143.19, 188.5L143.34, 187.04L143.52, 185.88L143.74, 185.07L144, 184.67L144.43, 184.12L144.8, 183.18L145.3, 180.7L145.39, 179.44L145.35, 178.37L145.16, 177.62L144.8, 177.33L143.24, 177.62L141.78, 178.32L140.81, 179.19L140.61, 179.62L140.67, 180L140.84, 180.52L140.78, 181.05L140.5, 181.56L140, 182L139.51, 182.55L139.08, 183.5L138.78, 184.7L138.67, 186L138.57, 187.28L138.32, 188.43L137.94, 189.34L137.47, 189.87L137.23, 190.14L136.94, 190.63L136.22, 192.17L135.42, 194.25L134.67, 196.67L133.91, 199.08L133.12, 201.17L132.4, 202.7L132.1, 203.2L131.87, 203.47L131.28, 203.7L130.91, 203.55L130.8, 202.94L130.95, 201.77L131.38, 199.96L131.71, 198.79L132.11, 197.43L132.59, 195.87L133.16, 194.09L133.8, 192.1L134.53, 189.87L136.15, 184.81L137.7, 179.83L138.39, 177.55L139, 175.5L139.5, 173.76L139.87, 172.4L140.88, 168.89L141.89, 165.81L142.87, 163.19L143.82, 161.08L144.69, 159.53L145.47, 158.58L146.14, 158.28L146.67, 158.67L147.49, 159.46L148.74, 160.13L150.26, 160.65L151.88, 160.98L153.43, 161.11L154.75, 161.01L155.66, 160.65L156, 160L155.94, 159.59L155.77, 158.99L155.13, 157.32L154.2, 155.22L153.07, 152.93L150, 147.33L149.33, 154L149.1, 155.99L148.89, 157.46L148.7, 158.44L148.5, 158.97L148.29, 159.05L148.06, 158.72L147.79, 158.01L147.47, 156.93L147.07, 155.27L146.88, 153.45L146.92, 151.7L147.2, 150.27L147.77, 148.48L148.64, 146.66L149.72, 144.93L150.93, 143.35L152.19, 142.03L153.43, 141.06L154.54, 140.53L155.47, 140.53L156.21, 140.74L156.8, 140.75L157.19, 140.59L157.33, 140.27L157.68, 139.63L158.63, 138.8L160.03, 137.87L161.73, 136.93M167.83, 242L168, 241.47L168.09, 240.87L168.35, 240.5L168.73, 240.38L169.2, 240.53L169.93, 240.67L171, 240.37L172.28, 239.71L173.6, 238.8L173.98, 238.47L174.53, 238.02L176.06, 236.8L178.12, 235.22L180.62, 233.33L183.47, 231.19L186.59, 228.86L193.33, 223.87L200.22, 218.83L203.51, 216.39L206.6, 214.1L209.39, 212.02L211.78, 210.22L213.71, 208.77L215.07, 207.73L217.08, 206.3L218.95, 205.25L220.45, 204.68L220.98, 204.6L221.33, 204.67L222.01, 205.19L222.44, 205.75L222.64, 206.31L222.62, 206.83L222.37, 207.3L221.91, 207.67L221.25, 207.91L220.4, 208L219.45, 208.08L219, 208.33L219.05, 208.79L219.6, 209.47L220.19, 209.73L221.4, 210.02L223.16, 210.33L225.38, 210.63L228.01, 210.92L230.94, 211.19L237.47, 211.6L240.03, 211.72L242.33, 211.81L244.38, 211.88L246.19, 211.93L247.79, 211.96L249.2, 211.96L251.47, 211.87L253.14, 211.65L254.34, 211.3L255.21, 210.8L255.87, 210.13L256.39, 209.51L256.74, 209.01L256.97, 208.37L256.54, 208.07L255.47, 208L254.63, 207.81L253.95, 207.27L253.5, 206.42L253.33, 205.33L253.27, 204.49L252.99, 203.85L252.38, 203.38L251.3, 203.05L249.64, 202.84L248.54, 202.78L247.26, 202.73L245.76, 202.7L244.04, 202.68L242.08, 202.67L239.87, 202.67L237.78, 202.66L235.93, 202.65L234.28, 202.63L232.84, 202.6L230.53, 202.48L228.88, 202.3L227.82, 202.03L227.25, 201.65L227.07, 201.16L227.2, 200.53L227.49, 199.5L227.75, 198.3L228, 195.87L228.1, 194.84L228.36, 194.08L228.75, 193.58L229.22, 193.35L229.71, 193.4L230.19, 193.75L230.62, 194.39L230.93, 195.33L231.24, 195.75L231.98, 195.8L233.22, 195.45L235, 194.68L237.38, 193.47L238.82, 192.69L240.42, 191.79L242.2, 190.77L244.16, 189.62L246.32, 188.34L248.67, 186.93L252.77, 184.47L256.37, 182.31L259.48, 180.43L262.16, 178.81L264.42, 177.43L266.3, 176.26L267.85, 175.28L269.08, 174.47L270.05, 173.8L270.77, 173.25L271.29, 172.8L271.64, 172.42L271.95, 171.8L272, 171.2L271.86, 170.49L271.47, 169.65L270.87, 168.78L270.13, 168L269.06, 167.54L267.54, 167.61L266.58, 167.87L265.46, 168.28L264.18, 168.86L262.7, 169.62L261.02, 170.55L259.12, 171.68L256.99, 173.01L254.61, 174.54L251.96, 176.3L249.03, 178.27L245.81, 180.48L242.27, 182.93L239.63, 184.74L237.14, 186.43L234.87, 187.97L232.87, 189.32L231.19, 190.43L229.89, 191.28L229.03, 191.81L228.67, 192L228.39, 191.63L228.18, 190.62L228.05, 189.13L228, 187.33L227.9, 185.54L227.63, 184.05L227.21, 183.04L226.67, 182.67L226.18, 182.53L225.75, 182.13L225.45, 181.54L225.33, 180.8L225.6, 179.92L225.97, 179.64L226.5, 179.45L227.22, 179.36L228.15, 179.36L229.29, 179.44L230.67, 179.6L232.16, 179.81L233.36, 179.91L234.29, 179.92L234.98, 179.82L235.47, 179.59L235.79, 179.24L236, 178.13L235.76, 177.12L234.97, 176.47L233.52, 176.11L232.53, 176.03L231.33, 176L229.91, 175.98L228.81, 175.91L228.02, 175.77L227.48, 175.52L227.18, 175.13L227.08, 174.59L227.14, 173.87L227.33, 172.93L227.49, 171.37L227.28, 169.91L226.75, 168.6L225.93, 167.47L224.86, 166.56L223.58, 165.92L222.13, 165.59L220.53, 165.6L219.16, 165.88L217.98, 166.35L217.04, 166.96L216.4, 167.62L216.11, 168.26L216.22, 168.81L216.79, 169.19L217.87, 169.33L218.71, 169.47L219.38, 169.87L219.84, 170.46L220, 171.2L219.83, 171.95L219.32, 172.4L218.48, 172.55L217.33, 172.4L216.02, 172.21L215.2, 172.48L214.78, 173.28L214.67, 174.67L214.77, 175.92L215.12, 176.7L215.74, 177.03L216.67, 176.93L217.48, 176.68L218.25, 176.68L218.9, 176.91L219.33, 177.33L219.57, 177.88L219.52, 178.3L219.24, 178.57L218.8, 178.67L218.23, 178.83L217.77, 179.27L217.45, 179.9L217.33, 180.67L217.45, 181.43L217.75, 182.07L218.18, 182.5L218.67, 182.67L219.21, 183.04L219.63, 184.05L219.9, 185.54L220, 187.33L219.97, 188.53L219.89, 189.53L219.52, 190.98L218.82, 191.81L217.73, 192.13L216.99, 192.18L216.46, 192.24L216.14, 192.3L216.03, 192.38L216.14, 192.48L216.46, 192.6L216.99, 192.75L217.73, 192.93L218.73, 193.38L219.43, 194.09L219.83, 194.97L219.93, 195.95L219.73, 196.97L219.23, 197.94L218.43, 198.8L217.33, 199.47L216.86, 199.72L216.01, 200.21L214.8, 200.94L213.26, 201.88L211.4, 203.02L209.24, 204.36L206.81, 205.87L204.13, 207.55L201.22, 209.38L198.1, 211.35L194.79, 213.44L191.31, 215.65L183.93, 220.34L176.13, 225.33L170.93, 228.65L166.17, 231.7L161.84, 234.5L157.91, 237.06L154.39, 239.38L151.25, 241.48L150.49, 242M161.73, 136.93L163.49, 136.06L164.81, 135.42L165.73, 135.02L166.32, 134.85L166.62, 134.9L166.7, 135.15L166.61, 135.61L166.4, 136.27L165.99, 136.93L165.4, 137.48L164.71, 137.86L164, 138L163.19, 138.26L162.42, 138.97L161.77, 140.02L161.33, 141.33L161.07, 142.28L160.76, 143.03L160.38, 143.6L159.88, 144L159.24, 144.25L158.43, 144.37L157.4, 144.37L156.13, 144.27L154.68, 144.18L153.62, 144.16L152.91, 144.22L152.52, 144.4L152.42, 144.73L152.59, 145.24L152.99, 145.97L153.6, 146.93L154.07, 147.7L154.66, 148.66L156.12, 151.03L159.33, 156.53L160.78, 158.83L162, 160.42L162.94, 161.33L163.57, 161.57L163.83, 161.14L163.68, 160.06L163.09, 158.34L162.61, 157.25L162, 156L161.39, 154.79L160.92, 153.77L160.58, 152.92L160.35, 152.25L160.24, 151.75L160.24, 151.42L160.52, 151.27L161.14, 151.76L162.06, 152.89L163.2, 154.62L164.53, 156.93L165.56, 158.74L166.49, 160.19L167.34, 161.31L168.17, 162.15L169, 162.75L169.9, 163.14L170.88, 163.37L172, 163.47L173.17, 163.53L174.09, 163.49L174.79, 163.34L175.3, 163.05L175.65, 162.61L175.86, 161.99L175.97, 161.17L176, 160.13L175.74, 158.4L174.95, 156.77L173.58, 155.18L171.6, 153.6L170.45, 152.78L169.59, 152.13L169.01, 151.61L168.7, 151.22L168.65, 150.93L168.86, 150.73L169.31, 150.6L170, 150.53L170.88, 150.53L171.5, 150.51L171.88, 150.47L172, 150.38L171.88, 150.24L171.5, 150.03L170.88, 149.73L170, 149.33L169.1, 148.86L168.63, 148.48L168.61, 148.23L169.07, 148.13L170.04, 148.29L171.43, 148.88L173.08, 149.8L174.8, 150.93L175.92, 151.82L176.8, 152.62L177.45, 153.36L177.88, 154.1L178.13, 154.88L178.19, 155.73L178.1, 156.72L177.87, 157.87L177.61, 159.15L177.46, 160.09L177.42, 160.73L177.52, 161.08L177.75, 161.16L178.15, 161L178.71, 160.6L179.47, 160L180.41, 159.35L181, 159.02L181.19, 159.01L180.93, 159.33L180.72, 159.98L180.87, 161.02L181.31, 162.28L182, 163.6L182.61, 164.54L183.05, 165.29L183.31, 165.88L183.4, 166.33L183.05, 166.98L182, 167.47L181.1, 167.7L180.07, 167.63L179.04, 167.32L178.13, 166.8L177.45, 166.43L176.31, 166.12L174.71, 165.88L172.65, 165.7L170.13, 165.58L167.16, 165.52L163.74, 165.53L159.87, 165.6L143.6, 166L143.07, 169.47L142.97, 170.5L142.98, 171.34L143.14, 172L143.48, 172.52L144.03, 172.93L144.81, 173.27L145.86, 173.57L147.2, 173.87L148.52, 174.05L150.43, 174.21L152.84, 174.35L155.65, 174.45L158.78, 174.52L162.14, 174.56L169.2, 174.53L172.25, 174.51L174.94, 174.48L177.3, 174.44L179.36, 174.39L181.16, 174.3L182.74, 174.19L185.37, 173.85L187.53, 173.3L189.52, 172.49L191.63, 171.36L194.13, 169.87L196.62, 168.39L198.68, 167.27L200.32, 166.49L201.53, 166.07L202.32, 165.99L202.68, 166.27L202.62, 166.89L202.13, 167.87L201.78, 168.19L201.13, 168.66L200.22, 169.25L199.08, 169.93L196.26, 171.5L192.93, 173.2L189.52, 174.87L186.32, 176.55L184.91, 177.34L183.69, 178.06L182.71, 178.69L182, 179.2L181.13, 179.86L180.53, 180.36L180.2, 180.72L180.15, 180.97L180.38, 181.13L180.89, 181.22L181.7, 181.29L182.8, 181.33L184.57, 181.51L185.78, 182.13L186.57, 183.36L186.85, 184.24L187.07, 185.33L187.3, 187.16L187.25, 189.28L186.97, 191.43L186.53, 193.33L185.89, 195.53L185.77, 197.5L186.2, 199.52L187.2, 201.87L188.04, 203.83L188.72, 205.77L189.17, 207.45L189.33, 208.67L189.37, 209.32L189.51, 209.76L189.78, 210L190.22, 210.02L190.86, 209.82L191.75, 209.4L192.92, 208.75L194.4, 207.87L197.75, 205.83L200.75, 203.93L203.41, 202.12L205.75, 200.41L207.77, 198.77L209.5, 197.19L210.93, 195.64L212.08, 194.12L212.97, 192.6L213.6, 191.07L213.99, 189.51L214.14, 187.9L214.08, 186.23L213.8, 184.48L213.33, 182.63L212.67, 180.67L211.86, 178.33L211.35, 176.18L211.14, 174.19L211.23, 172.3L211.64, 170.47L212.37, 168.67L213.42, 166.83L214.8, 164.93L216.14, 163.51L217.63, 162.44L219.25, 161.73L220.97, 161.38L222.74, 161.41L224.55, 161.8L226.36, 162.58L228.13, 163.73L229.78, 164.82L231.93, 165.8L234.28, 166.58L236.53, 167.07L238.99, 167.55L241.04, 168.2L242.68, 168.99L243.9, 169.92L244.68, 170.96L245.01, 172.11L244.88, 173.35L244.27, 174.67L243.59, 175.93L243.37, 176.75L243.59, 177.2L244.27, 177.33L244.74, 177.26L245.39, 177.06L247.16, 176.29L249.41, 175.14L251.95, 173.7L257.26, 170.36L259.69, 168.66L261.73, 167.07L263.41, 165.84L264.96, 164.94L266.4, 164.39L267.75, 164.17L269.03, 164.29L270.26, 164.74L271.47, 165.54L272.67, 166.67L273.8, 168.22L274.39, 169.77L274.43, 171.32L273.92, 172.88L272.85, 174.45L271.22, 176.02L269.03, 177.61L266.27, 179.2L262.98, 181.02L259.62, 183.09L256.35, 185.3L253.32, 187.53L250.68, 189.66L248.59, 191.58L247.79, 192.41L247.2, 193.15L246.82, 193.77L246.67, 194.27L246.53, 194.88L246.17, 195.48L245.07, 196.4L244.73, 196.69L245.05, 197.1L245.95, 197.56L247.33, 198L249.58, 198.6L251.63, 199.35L253.46, 200.23L255.08, 201.21L256.47, 202.29L257.63, 203.45L258.55, 204.66L259.22, 205.92L259.63, 207.19L259.79, 208.48L259.67, 209.75L259.28, 210.99L258.6, 212.19L257.63, 213.32L256.37, 214.38L254.8, 215.33L253.92, 215.66L252.72, 215.95L251.22, 216.19L249.48, 216.38L245.42, 216.64L240.85, 216.72L236.1, 216.61L231.49, 216.33L227.35, 215.86L225.56, 215.55L224, 215.2L222.28, 214.78L220.76, 214.43L218.14, 213.99L215.84, 214L213.55, 214.55L212.31, 215.07L210.96, 215.76L209.47, 216.64L207.78, 217.73L205.87, 219.04L203.69, 220.58L201.22, 222.36L198.4, 224.4L192.15, 228.93L189.26, 230.99L186.62, 232.85L184.31, 234.45L182.41, 235.74L180.99, 236.68L180.13, 237.2L179.29, 237.72L178.17, 238.46L176.84, 239.39L175.32, 240.47L173.25, 242"/><path stroke="black" fill="none" stroke-width="1" d="M242.67, 172.4L242.31, 173.08L241.86, 173.32L241.22, 173.5L240.38, 173.62L239.35, 173.68L238.11, 173.67L236.67, 173.6L234.32, 173.31L232.42, 172.88L231.14, 172.38L230.79, 172.12L230.67, 171.87L230.79, 171.62L231.14, 171.4L232.42, 171.02L234.32, 170.76L236.67, 170.67L239.24, 170.77L241.12, 171.08L242.27, 171.62L242.57, 171.98L242.67, 172.4"/><path stroke="black" fill="none" stroke-width="1" d="M176, 177.33L175.81, 177.56L175.28, 177.76L174.45, 177.92L173.37, 178.04L170.65, 178.18L167.48, 178.18L164.25, 178.06L161.32, 177.8L160.08, 177.63L159.07, 177.43L158.31, 177.19L157.87, 176.93L157.87, 176.74L158.24, 176.56L158.96, 176.4L159.98, 176.27L161.27, 176.15L162.8, 176.07L166.4, 176L170.15, 176.1L171.78, 176.21L173.2, 176.37L174.37, 176.56L175.25, 176.79L175.81, 177.05L176, 177.33"/><path stroke="black" fill="none" stroke-width="1" d="M168, 181.07L167.81, 181.31L167.27, 181.54L166.42, 181.75L165.28, 181.93L163.91, 182.1L162.32, 182.23L158.67, 182.4L155.07, 182.32L153.49, 182.23L152.1, 182.1L150.95, 181.93L150.08, 181.72L149.53, 181.48L149.33, 181.2L149.53, 180.96L150.08, 180.73L150.95, 180.53L152.1, 180.35L153.49, 180.2L155.07, 180.09L158.67, 180L162.32, 180.09L163.91, 180.2L165.28, 180.33L166.42, 180.49L167.27, 180.68L167.81, 180.87L168, 181.07"/><path stroke="black" fill="none" stroke-width="1" d="M182.27, 186.13L183.32, 187.24L183.7, 188.05L183.43, 188.74L182.53, 189.47L181.64, 190.14L181.35, 190.68L181.69, 191.25L182.67, 192L182.99, 192.31L182.95, 192.55L182.54, 192.72L181.73, 192.82L180.53, 192.85L178.92, 192.81L176.88, 192.7L174.4, 192.53L170.05, 192.26L165.73, 192.22L163.73, 192.28L161.91, 192.4L160.34, 192.58L159.07, 192.8L157.61, 193.16L156.69, 193.45L156.35, 193.68L156.65, 193.88L157.64, 194.06L159.39, 194.24L160.55, 194.34L161.93, 194.44L163.52, 194.55L165.33, 194.67L176.67, 195.47L165.73, 195.73L163.42, 195.81L161.3, 195.93L159.42, 196.09L157.8, 196.28L156.48, 196.51L155.5, 196.76L154.88, 197.04L154.67, 197.33L154.88, 197.82L155.43, 198.25L156.24, 198.55L157.2, 198.67L158.3, 198.78L159.33, 199.1L160.16, 199.57L160.67, 200.13L161.1, 200.46L161.9, 200.73L163.04, 200.95L164.52, 201.12L166.31, 201.23L168.41, 201.28L170.8, 201.27L173.47, 201.2L178.07, 201.1L180.15, 201.11L182, 201.17L183.58, 201.26L184.83, 201.39L185.7, 201.55L186.13, 201.73L186.29, 202.1L186, 202.4L185.31, 202.6L184.27, 202.67L183.08, 202.81L182.15, 203.22L181.55, 203.85L181.33, 204.67L181.54, 205.43L182.12, 206.07L182.96, 206.5L184, 206.67L185.04, 206.76L185.88, 207.03L186.46, 207.45L186.67, 208L186.46, 208.49L185.88, 208.92L185.04, 209.22L184, 209.33L182.96, 209.43L182.12, 209.7L181.54, 210.12L181.33, 210.67L181.09, 210.95L180.37, 211.21L179.22, 211.44L177.65, 211.63L175.7, 211.79L173.4, 211.9L170.78, 211.98L167.87, 212L165.56, 212L163.53, 211.99L161.75, 211.96L160.19, 211.92L157.66, 211.76L155.75, 211.47L154.27, 211L153.04, 210.31L151.85, 209.37L150.53, 208.13L149.02, 206.52L147.89, 205.09L147.14, 203.88L146.78, 202.92L146.82, 202.22L147.25, 201.81L148.09, 201.73L149.33, 202L150.54, 202.3L151.37, 202.2L151.85, 201.7L152, 200.8L151.81, 199.96L151.28, 199.28L150.48, 198.83L149.47, 198.67L148.29, 198.51L147.52, 198.03L147.12, 197.2L147.07, 196L147.26, 194.96L147.62, 194.12L148.1, 193.54L148.67, 193.33L149.01, 193.24L149.05, 192.98L148.76, 192.6L148.13, 192.13L147.21, 191.35L146.83, 190.45L147.01, 189.23L147.3, 188.43L147.73, 187.47L148.26, 186.32L148.86, 185.46L149.73, 184.85L151.05, 184.43L153.02, 184.18L154.3, 184.11L155.81, 184.05L157.59, 184.02L159.64, 184.01L161.99, 184L164.67, 184L168.92, 184.02L172.42, 184.09L175.26, 184.22L177.52, 184.42L179.26, 184.7L180.59, 185.07L181.56, 185.54L182.27, 186.13"/><path stroke="black" fill="none" stroke-width="1" d="M240.67, 198.67L240.74, 198.95L240.58, 199.19L240.18, 199.4L239.57, 199.57L238.74, 199.7L237.7, 199.79L235.07, 199.87L228.67, 199.6L234, 198.67L236.09, 198.27L237.85, 197.92L239.08, 197.64L239.44, 197.53L239.6, 197.47L240.03, 197.77L240.67, 198.67"/><path stroke="black" fill="none" stroke-width="1" d="M176.4, 199.6L174.96, 199.75L173.35, 199.8L171.77, 199.75L170.4, 199.6L169.89, 199.5L169.66, 199.4L169.69, 199.31L169.97, 199.23L170.48, 199.17L171.22, 199.11L172.18, 199.08L173.33, 199.07L174.49, 199.08L175.44, 199.11L176.19, 199.17L176.72, 199.23L177.01, 199.31L177.06, 199.4L176.86, 199.5L176.4, 199.6"/><path stroke="black" fill="none" stroke-width="1" d="M376.93, 139.47L378.02, 137.45L378.98, 136.02L379.78, 135.16L380.4, 134.88L380.82, 135.19L381.02, 136.07L380.98, 137.54L380.67, 139.6L380.18, 141.87L379.61, 143.77L379, 145.28L378.35, 146.37L377.68, 147.02L377.01, 147.21L376.36, 146.92L375.73, 146.13L375.43, 145L375.53, 143.45L376.03, 141.58L376.93, 139.47"/><path stroke="black" fill="none" stroke-width="1" d="M64.8, 140.27L65.61, 138.59L66.38, 137.23L67.03, 136.33L67.47, 136L67.72, 136.32L67.71, 137.16L67.48, 138.37L67.08, 139.78L65.99, 142.58L65.38, 143.64L64.8, 144.27L64.06, 144.7L63.52, 144.88L63.21, 144.81L63.1, 144.47L63.21, 143.85L63.52, 142.95L64.06, 141.76L64.8, 140.27"/><path stroke="black" fill="none" stroke-width="1" d="M350.13, 141.47L351.24, 139.74L352.17, 138.75L352.95, 138.49L353.6, 138.93L353.81, 139.76L353.67, 140.77L353.22, 141.82L352.53, 142.8L351.85, 143.72L351.25, 144.78L350.83, 145.82L350.67, 146.67L350.59, 147.44L350.33, 147.77L349.88, 147.64L349.2, 147.07L348.65, 146.17L348.62, 145.02L349.11, 143.49L350.13, 141.47"/><path stroke="black" fill="none" stroke-width="1" d="M52.67, 142.53L53.08, 141L53.5, 139.85L53.87, 139.18L54.13, 139.07L54.28, 139.37L54.33, 139.89L54.19, 141.48L53.78, 143.57L53.18, 145.88L52.48, 148.15L51.75, 150.11L51.08, 151.48L50.78, 151.87L50.53, 152L50.01, 151.84L49.63, 151.42L49.41, 150.8L49.33, 150.07L49.63, 148.51L50.01, 147.84L50.53, 147.33L51.07, 146.73L51.65, 145.63L52.2, 144.18L52.67, 142.53"/><path stroke="black" fill="none" stroke-width="1" d="M57.6, 142.67L58.27, 141.73L58.85, 140.98L59.31, 140.51L59.6, 140.4L59.77, 140.9L59.71, 141.72L59.1, 143.83L58.64, 144.9L58.14, 145.8L57.64, 146.43L57.2, 146.67L56.32, 146.47L56.13, 146.21L56.1, 145.82L56.23, 145.28L56.52, 144.59L56.98, 143.72L57.6, 142.67"/><path stroke="black" fill="none" stroke-width="1" d="M98, 145.33L101.64, 143.39L103.28, 142.56L104.73, 141.87L105.96, 141.32L106.93, 140.95L107.57, 140.77L107.87, 140.8L107.99, 141.08L107.99, 141.54L107.63, 142.91L106.92, 144.68L105.98, 146.6L104.94, 148.45L103.91, 149.99L103.02, 150.98L102.67, 151.2L102.4, 151.2L101.85, 150.37L101.82, 149.85L102, 149.33L102.23, 148.67L102.04, 148.16L101.49, 147.84L100.63, 147.68L99.51, 147.71L98.18, 147.93L96.68, 148.33L95.07, 148.93L94.09, 149.38L92.99, 150L90.58, 151.63L88.15, 153.62L86, 155.73L84.8, 156.99L83.81, 157.97L83, 158.67L82.37, 159.1L81.9, 159.27L81.57, 159.18L81.39, 158.85L81.33, 158.27L81.45, 156.87L81.77, 155.5L82.27, 154.22L82.92, 153.07L83.68, 152.09L84.54, 151.33L85.46, 150.84L86.4, 150.67L87.03, 150.52L87.99, 150.19L89.23, 149.69L90.7, 149.05L94.16, 147.39L98, 145.33"/><path stroke="black" fill="none" stroke-width="1" d="M77.73, 145.33L79.27, 143.71L80.57, 142.53L81.63, 141.79L82.43, 141.5L82.98, 141.64L83.25, 142.22L83.23, 143.23L82.93, 144.67L82.59, 145.55L82.06, 146.41L81.3, 147.27L80.32, 148.13L79.07, 149.02L77.55, 149.95L75.73, 150.94L73.6, 152L72.04, 152.72L70.67, 153.33L69.47, 153.83L68.44, 154.22L67.58, 154.49L66.89, 154.64L65.95, 154.57L65.6, 153.98L65.78, 152.86L66.46, 151.19L67.6, 148.93L68.2, 147.82L68.71, 146.97L69.14, 146.38L69.5, 146.03L69.8, 145.93L70.04, 146.05L70.24, 146.38L70.4, 146.93L70.74, 148.05L71.26, 148.78L71.96, 149.15L72.82, 149.13L73.83, 148.75L74.99, 147.98L76.3, 146.85L77.73, 145.33"/><path stroke="black" fill="none" stroke-width="1" d="M360.93, 146.27L361.99, 145.41L362.82, 145.17L363.43, 145.45L363.77, 146.17L363.82, 147.22L363.56, 148.52L362.96, 149.96L362, 151.47L361.38, 152.25L360.92, 152.8L360.58, 153.11L360.35, 153.15L360.2, 152.93L360.11, 152.42L360.05, 151.63L360, 150.53L360.07, 149.14L360.27, 147.85L360.56, 146.84L360.93, 146.27"/><path stroke="black" fill="none" stroke-width="1" d="M62.27, 148.93L62.72, 148.36L63.1, 148.22L63.43, 148.5L63.73, 149.2L63.82, 150.22L63.61, 151.58L63.18, 153.13L62.58, 154.73L61.88, 156.23L61.13, 157.49L60.39, 158.35L59.73, 158.67L59.33, 158.55L59.13, 158.25L59.13, 157.82L59.33, 157.33L59.78, 156.45L59.8, 155.98L59.46, 155.87L58.85, 156.08L58.06, 156.58L57.18, 157.31L55.47, 159.33L54.35, 160.91L53.41, 161.95L52.66, 162.46L52.12, 162.45L51.79, 161.94L51.7, 160.93L51.85, 159.43L52.27, 157.47L52.67, 156.01L53.1, 154.8L53.57, 153.83L54.12, 153.05L55.51, 151.97L57.47, 151.33L59.04, 150.85L60.47, 150.23L61.59, 149.57L62.27, 148.93"/><path stroke="black" fill="none" stroke-width="1" d="M75.07, 155.6L76.74, 154.38L78.04, 153.62L78.97, 153.32L79.53, 153.48L79.72, 154.1L79.53, 155.17L78.96, 156.69L78, 158.67L77.25, 160.33L76.79, 161.8L76.6, 163.03L76.68, 163.97L77.02, 164.57L77.61, 164.78L78.42, 164.56L79.47, 163.87L80.49, 163.28L81.48, 163.33L82.6, 164.09L83.25, 164.75L84, 165.6L85.53, 167.19L87.12, 168.18L88.76, 168.54L90.45, 168.3L92.18, 167.44L93.96, 165.98L95.76, 163.89L97.6, 161.2L99.17, 158.66L100.57, 156.58L101.14, 155.78L101.61, 155.18L101.95, 154.8L102.13, 154.67L102.36, 154.78L102.49, 155.11L102.49, 156.27L102.22, 157.95L101.72, 159.92L101.06, 161.95L100.31, 163.84L99.54, 165.35L98.8, 166.27L98.19, 166.76L97.76, 167.17L97.54, 167.5L97.52, 167.78L97.72, 168.03L98.14, 168.27L98.81, 168.52L99.73, 168.8L101.38, 169.36L102.35, 169.92L102.65, 170.46L102.33, 170.95L101.41, 171.37L99.92, 171.71L97.88, 171.92L95.33, 172L92.27, 172.1L91.02, 172.22L89.97, 172.38L89.12, 172.59L88.51, 172.84L88.13, 173.14L88, 173.47L88.3, 174.12L89.2, 174.47L90.7, 174.52L92.8, 174.27L94.38, 174.01L95.56, 173.87L96.39, 173.89L96.92, 174.1L97.18, 174.55L97.24, 175.28L97.14, 176.33L96.93, 177.73L96.71, 179.27L96.63, 180.25L96.71, 180.6L96.93, 180.27L97.41, 179.64L98.17, 179.18L99.1, 178.87L100.1, 178.73L101.06, 178.77L101.88, 178.99L102.45, 179.4L102.67, 180L102.39, 180.66L101.63, 181.38L100.53, 182.08L99.2, 182.67L98.21, 182.97L96.92, 183.24L95.4, 183.46L93.67, 183.64L89.86, 183.89L85.88, 183.97L82.17, 183.89L80.53, 183.78L79.12, 183.64L77.97, 183.46L77.15, 183.24L76.7, 182.97L76.67, 182.67L77.1, 182.25L77.75, 182.02L78.52, 182.01L79.33, 182.27L80.15, 182.39L80.78, 182.18L81.19, 181.65L81.33, 180.8L81.19, 179.96L80.8, 179.28L80.21, 178.83L79.47, 178.67L78.74, 178.41L78.02, 177.7L77.42, 176.64L77.07, 175.33L76.91, 174.39L76.86, 173.63L76.92, 173.05L77.12, 172.62L77.45, 172.32L77.95, 172.13L78.61, 172.03L79.47, 172L80.81, 171.86L81.82, 171.45L82.45, 170.82L82.67, 170L82.46, 169.24L81.88, 168.6L81.04, 168.16L80, 168L78.96, 167.89L78.12, 167.58L77.54, 167.16L77.33, 166.67L77.03, 166.12L76.18, 165.7L74.91, 165.43L73.33, 165.33L71.73, 165.47L70.52, 165.86L69.73, 166.42L69.37, 167.12L69.44, 167.88L69.96, 168.65L70.94, 169.38L72.4, 170L73.22, 170.32L73.76, 170.59L74.01, 170.81L73.95, 171L73.58, 171.16L72.87, 171.31L71.81, 171.45L70.4, 171.6L68.43, 171.89L66.82, 172.33L65.73, 172.88L65.33, 173.47L65.45, 173.94L65.75, 174.32L66.67, 174.67L67.21, 174.83L67.63, 175.27L67.9, 175.9L68, 176.67L68.21, 177.43L68.78, 178.07L69.63, 178.5L70.67, 178.67L71.7, 178.76L72.55, 179.03L73.12, 179.45L73.33, 180L73.12, 180.49L72.55, 180.92L71.7, 181.22L70.67, 181.33L69.86, 181.39L69.24, 181.6L68.77, 182.04L68.43, 182.78L68.21, 183.89L68.08, 185.44L68.02, 187.5L68, 190.13L68.02, 192.06L68.1, 193.74L68.21, 195.17L68.37, 196.32L68.56, 197.19L68.79, 197.76L69.05, 198.04L69.33, 198L70.75, 197.72L71.53, 197.83L72.27, 198.13L72.66, 198.76L72.43, 199.63L71.55, 200.76L70, 202.13L68.81, 203.25L67.96, 204.35L67.43, 205.37L67.25, 206.25L67.41, 206.92L67.92, 207.33L68.78, 207.4L70, 207.07L70.87, 206.97L71.5, 207.28L71.87, 208.02L72, 209.2L72.18, 210.59L72.8, 211.45L73.33, 211.71L74.03, 211.88L74.91, 211.97L76, 212L77.05, 211.97L77.92, 211.88L79.15, 211.47L79.81, 210.65L80, 209.33L79.84, 208.3L79.4, 207.45L78.76, 206.88L78, 206.67L77.24, 206.53L76.6, 206.15L76.16, 205.6L76, 204.93L76.09, 204.48L76.38, 204.11L76.88, 203.83L77.62, 203.63L78.61, 203.53L79.88, 203.51L81.45, 203.58L83.33, 203.73L85.41, 203.89L87.07, 203.97L88.35, 203.95L89.3, 203.83L89.96, 203.6L90.38, 203.25L90.6, 202.76L90.67, 202.13L90.43, 201.12L89.63, 200.47L88.19, 200.11L87.2, 200.03L86, 200L84.2, 199.89L82.72, 199.58L81.71, 199.16L81.33, 198.67L81.17, 198.12L80.73, 197.7L80.1, 197.43L79.33, 197.33L78.57, 197.15L77.93, 196.63L77.5, 195.87L77.33, 194.93L77.41, 194.21L77.69, 193.63L78.25, 193.18L79.17, 192.83L80.52, 192.57L82.4, 192.38L84.86, 192.24L88, 192.13L89.75, 192.11L91.29, 192.1L93.83, 192.12L95.71, 192.21L97.03, 192.4L97.89, 192.72L98.39, 193.18L98.61, 193.83L98.67, 194.67L98.78, 195.7L99.08, 196.55L99.51, 197.12L100, 197.33L100.55, 197.5L100.97, 197.93L101.24, 198.57L101.33, 199.33L101.17, 200.1L100.73, 200.73L100.1, 201.17L99.33, 201.33L97.93, 201.5L97.5, 201.67L97.33, 201.87L97.26, 202.23L97.08, 202.85L96.53, 204.53L96.31, 205.43L96.43, 206.1L96.91, 206.52L97.73, 206.67L98.54, 206.88L99.32, 207.45L99.96, 208.3L100.4, 209.33L100.96, 210.59L101.9, 211.42L103.29, 211.86L105.2, 212L106.3, 211.97L107.2, 211.88L108.47, 211.47L109.14, 210.65L109.33, 209.33L109.17, 208.3L108.73, 207.45L108.1, 206.88L107.33, 206.67L106.57, 206.55L105.93, 206.25L105.5, 205.82L105.33, 205.33L105.47, 204.79L105.87, 204.37L106.46, 204.1L107.2, 204L108.07, 203.75L108.87, 203.09L109.53, 202.15L110.03, 201.05L110.32, 199.92L110.35, 198.88L110.08, 198.07L109.47, 197.6L108.74, 197.02L108.26, 195.97L108.01, 194.63L107.98, 193.17L108.18, 191.74L108.59, 190.51L109.2, 189.66L110, 189.33L110.76, 189.22L111.4, 188.9L111.84, 188.43L112, 187.87L111.77, 187.4L111.13, 187.05L110.2, 186.87L109.07, 186.93L107.72, 186.96L106.68, 186.63L105.97, 185.96L105.6, 184.93L105.58, 183.9L105.93, 183.2L106.69, 182.8L107.87, 182.67L108.98, 182.52L109.87, 182.12L110.45, 181.49L110.67, 180.67L110.53, 179.9L110.13, 179.27L109.54, 178.83L108.8, 178.67L108.07, 178.41L107.33, 177.7L106.7, 176.64L106.27, 175.33L106.11, 174.35L106.06, 173.58L106.12, 173L106.3, 172.6L106.62, 172.35L107.09, 172.22L107.72, 172.2L108.53, 172.27L109.73, 172.29L110.68, 171.97L111.36, 171.29L111.73, 170.27L111.75, 169.24L111.4, 168.53L110.65, 168.13L109.47, 168L108.35, 167.89L107.47, 167.58L106.88, 167.16L106.67, 166.67L106.5, 166.12L106.07, 165.7L105.43, 165.43L104.67, 165.33L104.15, 165.28L103.79, 165.12L103.61, 164.81L103.58, 164.32L103.73, 163.62L104.05, 162.69L104.54, 161.49L105.2, 160L106.28, 157.62L107.21, 155.79L107.97, 154.52L108.55, 153.82L108.94, 153.7L109.12, 154.17L109.08, 155.24L108.8, 156.93L108.57, 158.14L108.47, 159.2L108.8, 161.08L109.25, 162.01L109.92, 162.99L110.83, 164.08L112, 165.33L113.57, 167.11L114.63, 168.75L115.15, 170.11L115.19, 170.65L115.07, 171.07L114.87, 171.72L114.67, 173.04L114.49, 174.93L114.32, 177.32L114.16, 180.13L114.04, 183.27L113.93, 186.68L113.87, 190.27L113.8, 193.8L113.7, 197.16L113.58, 200.27L113.43, 203.03L113.28, 205.39L113.12, 207.25L112.96, 208.55L112.8, 209.2L112.76, 209.91L113.35, 210.78L114.47, 211.73L116, 212.67L117.74, 213.63L118.96, 214.39L119.67, 214.95L119.87, 215.28L119.57, 215.37L118.77, 215.2L117.49, 214.75L115.73, 214L114.42, 213.48L113.34, 213.12L112.45, 212.92L111.7, 212.88L110.41, 213.27L109.07, 214.27L107.71, 215.27L106.43, 215.68L104.9, 215.52L103.94, 215.23L102.8, 214.8L101.06, 213.9L99.22, 212.72L97.49, 211.41L96.13, 210.13L94.53, 208.67L92.92, 207.85L90.98, 207.6L89.79, 207.67L88.4, 207.87L86.53, 208.28L85.22, 208.8L84.45, 209.38L84.23, 209.97L84.55, 210.52L85.4, 210.98L86.77, 211.31L88.67, 211.47L89.61, 211.61L90.86, 211.96L92.36, 212.5L94.06, 213.2L97.87, 214.97L101.88, 217.05L105.71, 219.22L107.42, 220.28L108.94, 221.27L110.2, 222.18L111.17, 222.98L111.78, 223.64L112, 224.13L111.82, 224.26L111.3, 224.16L110.47, 223.84L109.38, 223.33L108.06, 222.65L106.54, 221.81L103.07, 219.73L99.82, 217.83L97.02, 216.39L94.46, 215.37L91.9, 214.75L89.13, 214.48L85.93, 214.54L84.1, 214.68L82.07, 214.88L79.83, 215.14L77.33, 215.47L75.48, 215.67L73.97, 215.75L72.72, 215.69L71.65, 215.45L70.67, 215L69.7, 214.32L68.66, 213.38L67.47, 212.13L65.62, 209.92L64.42, 207.72L63.74, 205.29L63.47, 202.4L63.3, 200.01L63, 197.82L62.6, 196.04L62.38, 195.39L62.13, 194.93L61.88, 194.29L61.9, 193.78L62.17, 193.45L62.67, 193.33L63.23, 193.05L63.68, 192.27L63.96, 191.08L64, 189.6L63.93, 188.15L63.9, 186.87L63.93, 185.89L64, 185.33L64.63, 183.17L64.95, 181.12L64.97, 179.26L64.7, 177.65L64.17, 176.36L63.4, 175.45L62.4, 175L61.2, 175.07L59.92, 175.3L59.23, 175.1L59.1, 174.8L59.1, 174.35L59.22, 173.74L59.47, 172.93L59.8, 171.81L60.05, 170.99L60.67, 169.9L61.19, 169.45L61.98, 168.96L63.11, 168.33L64.67, 167.47L68.67, 165.2L65.07, 166L63.92, 166.21L63.06, 166.31L62.47, 166.26L62.13, 166.05L62.02, 165.63L62.1, 164.97L62.37, 164.04L62.8, 162.8L63.59, 161.01L64.58, 159.82L65.86, 159.14L67.47, 158.93L69.05, 158.67L71.02, 157.97L73.11, 156.91L75.07, 155.6"/><path stroke="black" fill="none" stroke-width="1" d="M92.4, 176.93L90.35, 177.08L88.02, 177.13L85.71, 177.08L83.73, 176.93L83.03, 176.83L82.71, 176.74L82.76, 176.65L83.17, 176.57L83.91, 176.5L84.97, 176.45L86.34, 176.41L88, 176.4L89.66, 176.41L91.03, 176.45L92.1, 176.5L92.85, 176.57L93.27, 176.65L93.34, 176.74L93.06, 176.83L92.4, 176.93"/><path stroke="black" fill="none" stroke-width="1" d="M93.73, 196.93L92.24, 197.08L90.5, 197.13L88.71, 197.08L87.07, 196.93L86.43, 196.83L86.12, 196.74L86.11, 196.65L86.38, 196.57L86.93, 196.5L87.72, 196.45L88.75, 196.41L90, 196.4L91.3, 196.41L92.38, 196.45L93.24, 196.5L93.87, 196.57L94.24, 196.65L94.35, 196.74L94.19, 196.83L93.73, 196.93"/><path stroke="black" fill="none" stroke-width="1" d="M47.47, 156.13L47.79, 155.46L48.13, 155.05L48.48, 154.91L48.8, 155.07L49.07, 155.76L49.1, 156.91L48.95, 158.36L48.63, 159.93L48.21, 161.45L47.71, 162.75L47.19, 163.66L46.67, 164L46.37, 163.86L46.19, 163.45L46.12, 162.78L46.17, 161.87L46.32, 160.73L46.59, 159.39L46.97, 157.85L47.47, 156.13"/><path stroke="black" fill="none" stroke-width="1" d="M139.73, 156.13L140.11, 155.36L140.45, 155.03L140.76, 155.16L141.07, 155.73L141.07, 155.96L140.99, 156.42L140.85, 157.08L140.64, 157.94L140.05, 160.18L139.25, 163.02L138.29, 166.35L137.2, 170.05L134.77, 178.07L132.25, 186.13L131.04, 189.89L129.93, 193.31L128.94, 196.27L128.11, 198.64L127.76, 199.58L127.47, 200.33L127.24, 200.87L127.07, 201.2L126.52, 201.37L125.87, 200.93L125.86, 200.44L126.09, 199.28L126.52, 197.52L127.13, 195.25L127.9, 192.53L128.8, 189.45L129.81, 186.1L130.9, 182.53L133.24, 175.11L135.62, 167.82L136.76, 164.42L137.85, 161.28L138.84, 158.5L139.73, 156.13"/><path stroke="black" fill="none" stroke-width="1" d="M25.73, 162.13L29.03, 160.33L31.9, 158.83L33.07, 158.24L34.02, 157.78L34.7, 157.47L35.07, 157.33L35.63, 157.5L36.35, 157.98L37.2, 158.73L38.16, 159.72L40.27, 162.25L42.48, 165.25L44.58, 168.42L46.34, 171.45L47.02, 172.82L47.55, 174.04L47.88, 175.07L48, 175.87L47.85, 176.26L47.43, 176.77L46.78, 177.38L45.92, 178.06L43.78, 179.55L41.3, 181.08L38.78, 182.47L36.52, 183.54L35.59, 183.89L34.83, 184.1L34.29, 184.15L34, 184L33.94, 183.5L34.24, 182.83L34.87, 182.01L35.82, 181.07L37.04, 180.02L38.52, 178.9L40.23, 177.73L42.13, 176.53L42.92, 176.03L43.49, 175.61L43.84, 175.22L43.98, 174.83L43.92, 174.41L43.65, 173.91L43.19, 173.3L42.53, 172.53L41.51, 171.19L40.33, 169.48L39.16, 167.6L38.13, 165.73L37.45, 164.37L36.88, 163.37L36.35, 162.71L35.82, 162.35L35.21, 162.27L34.48, 162.45L33.56, 162.86L32.4, 163.47L29.28, 164.75L27.99, 165.17L27.07, 165.33L26.09, 165.46L24.85, 165.81L22.07, 166.92L20.76, 167.57L19.68, 168.2L18.94, 168.77L18.67, 169.2L18.79, 169.5L19.14, 170.08L19.69, 170.89L20.42, 171.92L21.3, 173.11L22.32, 174.43L24.67, 177.33L26.89, 180.19L27.83, 181.47L28.63, 182.6L29.27, 183.56L29.73, 184.31L29.98, 184.82L30, 185.07L29.57, 185.22L28.96, 185.05L28.19, 184.59L27.29, 183.88L26.29, 182.96L25.23, 181.86L23.02, 179.28L20.88, 176.44L19.07, 173.61L18.35, 172.3L17.81, 171.1L17.46, 170.06L17.33, 169.2L17.48, 168.6L17.9, 167.91L18.58, 167.13L19.53, 166.27L20.73, 165.33L22.17, 164.32L23.84, 163.26L25.73, 162.13"/><path stroke="black" fill="none" stroke-width="1" d="M289.73, 164.13L292.52, 162.68L294.11, 162.19L296.02, 161.83L298.38, 161.59L301.34, 161.43L303.09, 161.39L305.03, 161.35L307.2, 161.34L309.6, 161.33L325.2, 161.33L328.8, 165.87L330.14, 167.61L331.2, 169.15L332.01, 170.62L332.62, 172.15L333.05, 173.89L333.36, 175.97L333.57, 178.54L333.73, 181.73L333.8, 183.72L333.75, 185.34L333.57, 186.68L333.2, 187.85L332.61, 188.94L331.75, 190.04L330.58, 191.25L329.07, 192.67L327.05, 194.65L325.17, 196.67L323.63, 198.48L323.06, 199.24L322.67, 199.87L321.68, 201.02L320.05, 202.2L318, 203.28L315.73, 204.13L313.07, 205.07L310.53, 206.45L308.2, 208.2L306.13, 210.27L304.3, 212.16L302.35, 213.9L300.53, 215.29L299.74, 215.79L299.07, 216.13L298.01, 216.42L296.82, 216.53L294.14, 216.3L291.24, 215.55L288.35, 214.38L285.69, 212.91L283.49, 211.24L282.62, 210.36L281.96, 209.48L281.52, 208.6L281.33, 207.73L281.4, 207.5L281.59, 207.12L282.28, 206L283.3, 204.58L284.53, 203.07L285.63, 201.78L286.42, 200.75L286.92, 199.91L287.13, 199.15L287.07, 198.4L286.75, 197.57L286.16, 196.58L285.33, 195.33L284.55, 194.09L284, 193.1L283.69, 192.24L283.63, 191.43L283.84, 190.56L284.32, 189.52L285.08, 188.21L286.13, 186.53L287.4, 184.48L288.31, 182.92L288.87, 181.72L289.08, 180.73L288.95, 179.82L288.48, 178.85L287.67, 177.66L286.53, 176.13L285.44, 174.39L284.76, 172.74L284.51, 171.18L284.68, 169.68L285.29, 168.25L286.33, 166.85L287.81, 165.49L289.73, 164.13"/><path stroke="black" fill="none" stroke-width="1" d="M324.93, 166.93L325.91, 167.35L326.64, 167.7L327.14, 167.99L327.42, 168.23L327.47, 168.44L327.31, 168.62L326.4, 168.93L325.36, 169.3L324.62, 169.78L324.2, 170.34L324.08, 170.93L324.27, 171.53L324.77, 172.08L325.57, 172.56L326.67, 172.93L327.92, 173.38L328.52, 173.98L328.49, 174.86L327.87, 176.13L327.37, 177.42L327.32, 178.35L327.74, 179L328.67, 179.47L329.43, 179.91L330.01, 180.5L330.4, 181.23L330.6, 182.05L330.6, 182.94L330.39, 183.87L329.97, 184.81L329.33, 185.73L328.62, 186.59L327.77, 187.67L326, 190L325.38, 190.77L324.67, 191.37L323.76, 191.83L322.55, 192.17L320.95, 192.39L318.86, 192.51L316.17, 192.56L312.8, 192.53L301.33, 192.53L301.33, 197.6L301.45, 199.57L301.75, 201.18L302.18, 202.27L302.67, 202.67L303.21, 202.83L303.63, 203.27L303.9, 203.9L304, 204.67L303.84, 205.43L303.38, 206.07L302.71, 206.5L301.87, 206.67L300.97, 206.82L300.47, 207.3L300.37, 208.13L300.67, 209.33L300.86, 210.1L300.94, 210.71L300.86, 211.17L300.62, 211.52L300.18, 211.75L299.52, 211.9L298.63, 211.98L297.47, 212L295.87, 211.89L294.42, 211.58L293.29, 211.16L292.67, 210.67L292.11, 210.19L291.15, 209.95L289.91, 209.94L288.53, 210.13L287.63, 210.33L286.91, 210.42L285.93, 210.23L285.46, 209.5L285.33, 208.13L285.46, 206.77L285.93, 206.03L286.91, 205.85L287.63, 205.93L288.53, 206.13L289.73, 206.27L290.75, 206.08L291.58, 205.52L292.23, 204.58L292.73, 203.24L293.07, 201.46L293.27, 199.24L293.33, 196.53L293.31, 195.28L293.23, 194.32L293.06, 193.61L292.78, 193.13L292.38, 192.85L291.81, 192.75L291.07, 192.78L290.13, 192.93L288.83, 193.09L287.63, 192.98L286.68, 192.65L286.13, 192.13L285.95, 191.51L286.2, 191.05L286.85, 190.76L287.87, 190.67L289.04, 190.47L289.95, 189.88L290.59, 188.92L290.93, 187.6L291.12, 186.67L291.5, 185.95L292.24, 185.42L293.53, 185.03L294.44, 184.88L295.55, 184.76L296.89, 184.65L298.47, 184.56L300.33, 184.48L302.47, 184.41L304.93, 184.34L307.73, 184.27L310.13, 184.22L312.3, 184.16L314.24, 184.09L315.96, 184.02L318.8, 183.85L320.92, 183.62L322.4, 183.32L323.35, 182.94L323.85, 182.46L324, 181.87L323.83, 181.07L323.37, 180.52L322.65, 180.24L321.73, 180.27L320.66, 180.26L319.83, 179.83L319.26, 178.95L318.93, 177.6L318.75, 176.67L318.45, 175.96L317.91, 175.44L317.05, 175.08L315.76, 174.86L313.93, 174.73L311.47, 174.68L309.96, 174.67L308.27, 174.67L303.53, 174.61L299.42, 174.44L295.94, 174.17L293.08, 173.78L290.86, 173.29L289.27, 172.7L288.32, 172L288, 171.2L288.14, 170.46L288.53, 169.87L289.13, 169.47L289.87, 169.33L290.66, 169.17L291.4, 168.73L292.04, 168.1L292.53, 167.33L292.86, 166.79L293.47, 166.35L294.46, 166L295.87, 165.73L297.78, 165.54L300.26, 165.42L303.38, 165.35L307.2, 165.33L312.93, 165.45L315.65, 165.59L318.17, 165.78L320.42, 166.02L322.35, 166.29L323.88, 166.6L324.93, 166.93"/><path stroke="black" fill="none" stroke-width="1" d="M304.67, 177.33L304.74, 177.62L304.55, 177.88L304.13, 178.11L303.47, 178.3L302.58, 178.46L301.48, 178.57L300.17, 178.64L298.67, 178.67L297.16, 178.64L295.85, 178.57L294.75, 178.46L293.87, 178.3L293.21, 178.11L292.78, 177.88L292.6, 177.62L292.67, 177.33L292.92, 177.05L293.38, 176.79L294.77, 176.37L296.6, 176.1L298.67, 176L300.73, 176.1L302.57, 176.37L303.95, 176.79L304.41, 177.05L304.67, 177.33"/><path stroke="black" fill="none" stroke-width="1" d="M314.67, 181.33L314.36, 181.82L313.53, 182.25L312.3, 182.55L310.8, 182.67L309.15, 182.55L307.7, 182.25L306.6, 181.82L306, 181.33L305.99, 180.79L306.68, 180.37L308.01, 180.1L309.87, 180L311.74, 180.1L313.27, 180.37L314.29, 180.79L314.67, 181.33"/><path stroke="black" fill="none" stroke-width="1" d="M310.4, 195.6L309.28, 195.75L308.02, 195.8L306.78, 195.75L305.73, 195.6L305.34, 195.46L305.17, 195.33L305.42, 195.12L306.39, 194.98L308, 194.93L309.61, 194.98L310.6, 195.12L310.89, 195.33L310.75, 195.46L310.4, 195.6"/><path stroke="black" fill="none" stroke-width="1" d="M320, 199.33L319.67, 200.26L319.23, 200.61L318.58, 200.88L317.7, 201.09L316.57, 201.23L315.16, 201.31L313.47, 201.33L310.85, 201.23L308.74, 200.97L307.18, 200.57L306.23, 200.1L305.95, 199.59L306.38, 199.08L306.88, 198.85L307.58, 198.63L308.48, 198.43L309.6, 198.27L312.65, 197.92L315.05, 197.7L316.88, 197.61L318.2, 197.65L319.1, 197.84L319.65, 198.17L319.93, 198.67L320, 199.33"/><path stroke="black" fill="none" stroke-width="1" d="M54.67, 164.4L54.88, 163.93L55.45, 163.55L56.3, 163.29L57.33, 163.2L58.28, 163.25L59.01, 163.38L59.55, 163.59L59.91, 163.86L60.08, 164.56L59.62, 165.4L58.58, 166.29L57.05, 167.14L55.1, 167.87L52.8, 168.4L51.17, 168.66L49.96, 168.82L49.15, 168.87L48.7, 168.78L48.59, 168.54L48.79, 168.12L49.27, 167.5L50, 166.67L51.03, 165.7L52.03, 165.03L52.89, 164.72L53.47, 164.8L53.94, 164.98L54.32, 164.95L54.57, 164.74L54.67, 164.4"/><path stroke="black" fill="none" stroke-width="1" d="M72, 188.13L73.07, 187.66L74.55, 187.42L76.26, 187.4L78, 187.6L79.99, 188.02L81.37, 188.38L82.13, 188.68L82.27, 188.92L81.78, 189.1L80.66, 189.23L78.91, 189.31L76.53, 189.33L74.98, 189.31L73.72, 189.26L72.76, 189.16L72.07, 189.03L71.65, 188.86L71.51, 188.66L71.63, 188.41L72, 188.13"/><path stroke="black" fill="none" stroke-width="1" d="M123.33, 205.33L123.97, 204.83L124.83, 204.79L125.81, 205.12L126.82, 205.77L127.75, 206.65L128.53, 207.7L129.04, 208.84L129.2, 210L129.19, 210.83L129.16, 211.42L129.09, 211.76L128.97, 211.85L128.78, 211.68L128.53, 211.26L128.18, 210.56L127.73, 209.6L127.02, 208.47L126.17, 207.53L125.26, 206.9L124.4, 206.67L123.73, 206.57L123.32, 206.3L123.18, 205.88L123.33, 205.33"/></svg>