<?xml version="1.0" encoding="UTF-8" standalone="no"?>
<svg
   xmlns:dc="http://purl.org/dc/elements/1.1/"
   xmlns:cc="http://creativecommons.org/ns#"
   xmlns:rdf="http://www.w3.org/1999/02/22-rdf-syntax-ns#"
   xmlns:svg="http://www.w3.org/2000/svg"
   xmlns="http://www.w3.org/2000/svg"
   xmlns:sodipodi="http://sodipodi.sourceforge.net/DTD/sodipodi-0.dtd"
   xmlns:inkscape="http://www.inkscape.org/namespaces/inkscape"
   id="Horizontal"
   width="986.20001"
   height="212.38"
   version="1.1"
   xml:space="preserve">
<style
   type="text/css"
   id="style39">
	.st0{fill:#1C1E20;}
</style>
<g
   transform="matrix(1.4152,0,0,1.4152,-865.53632,-658.03262)"
   fill="#1c1e20"
   id="g55">
	<path
   class="st0"
   d="m 956.2,507.7 c -8.8,0 -17.4,3.3 -23.7,9.6 -6.3,6.3 -9.5,15 -9.5,23.7 0,8.8 3.1,17.4 9.3,23.8 6.2,6.4 14.8,9.7 23.6,9.7 8.8,0 17.4,-3.3 23.7,-9.6 6.3,-6.3 9.5,-15 9.5,-23.7 0,-8.8 -3.1,-17.4 -9.3,-23.8 -6.3,-6.3 -14.8,-9.7 -23.6,-9.7 z m 17.6,37.3 c -0.2,1.2 -0.6,2.4 -1,3.6 -0.4,1.1 -1,2.2 -1.6,3.2 -0.6,1 -1.3,1.9 -2.1,2.7 -0.8,0.8 -1.7,1.5 -2.6,2.2 -1,0.6 -2,1.2 -3.1,1.6 -1.1,0.5 -2.3,0.8 -3.5,1 -1.2,0.2 -2.5,0.3 -3.7,0.3 -1.3,0 -2.5,-0.1 -3.7,-0.4 -1.2,-0.2 -2.4,-0.6 -3.5,-1 -1.1,-0.4 -2.1,-1 -3.1,-1.6 -0.9,-0.6 -1.8,-1.4 -2.6,-2.2 -0.8,-0.8 -1.5,-1.7 -2.1,-2.7 -0.6,-1 -1.2,-2.1 -1.6,-3.2 -0.5,-1.2 -0.8,-2.4 -1,-3.6 -0.2,-1.3 -0.3,-2.6 -0.3,-3.9 0,-1.3 0.1,-2.6 0.4,-3.9 0.2,-1.2 0.6,-2.4 1,-3.6 0.4,-1.1 1,-2.2 1.6,-3.2 0.6,-1 1.3,-1.9 2.1,-2.7 0.8,-0.8 1.7,-1.5 2.6,-2.2 1,-0.6 2,-1.2 3.1,-1.6 1.1,-0.5 2.3,-0.8 3.5,-1 1.2,-0.2 2.5,-0.3 3.7,-0.3 1.3,0 2.5,0.1 3.7,0.4 1.2,0.2 2.4,0.6 3.5,1 1.1,0.4 2.1,1 3.1,1.6 0.9,0.6 1.8,1.4 2.6,2.2 0.8,0.8 1.5,1.7 2.1,2.7 0.6,1 1.2,2.1 1.6,3.2 0.5,1.2 0.8,2.4 1,3.6 0.2,1.3 0.3,2.6 0.3,3.9 -0.1,1.4 -0.2,2.6 -0.4,3.9 z"
   id="path41" />
	<path
   class="st0"
   d="m 832.2,482 c -8.7,-7 -18.8,-11.9 -29.7,-14.5 -6.2,-1.5 -12.5,-2.2 -18.9,-2.4 -4.7,-0.2 -9.5,-0.1 -14.2,-0.1 h -67.3 c -4.7,0 -9.5,0 -14.2,0.1 -6.4,0.2 -12.6,0.9 -18.9,2.4 -10.9,2.6 -20.9,7.5 -29.6,14.5 -17.6,14.1 -27.8,35.4 -27.8,58 0,22.6 10.2,43.9 27.8,58 8.7,7 18.8,11.9 29.7,14.5 6.2,1.5 12.5,2.2 18.9,2.4 4.7,0.2 9.5,0.1 14.2,0.1 h 67.3 c 4.7,0 9.5,0 14.2,-0.1 6.4,-0.2 12.6,-0.9 18.9,-2.4 10.9,-2.6 20.9,-7.5 29.6,-14.5 17.6,-14.1 27.8,-35.4 27.8,-58 0,-22.6 -10.2,-43.9 -27.8,-58 z m -32.9,78.2 c -3.3,2.3 -7,3.7 -10.9,4.3 -3.9,0.6 -7.9,0.5 -11.8,0.5 h -81.5 c -4,0 -7.9,0.1 -11.8,-0.5 -4,-0.6 -7.6,-2 -10.9,-4.3 -6.6,-4.6 -10.6,-12.1 -10.6,-20.2 0,-8.1 4,-15.6 10.6,-20.2 3.3,-2.3 7,-3.7 10.9,-4.3 3.9,-0.6 7.9,-0.5 11.8,-0.5 h 81.5 c 4,0 7.9,-0.1 11.8,0.5 4,0.6 7.6,2 10.9,4.3 6.6,4.6 10.6,12.1 10.6,20.2 0.1,8.1 -3.9,15.6 -10.6,20.2 z"
   id="path43" />
	<path
   class="st0"
   d="m 1225.8,539.2 c 0,1.8 0,3.6 -0.1,5.3 -0.1,1.1 -0.2,2.3 -0.4,3.4 -0.4,2.1 -1.1,4.1 -2.2,5.9 -2.8,4.4 -7.8,6.6 -12.8,6.7 -5.1,0.1 -10,-2 -12.7,-6.6 -1.1,-1.9 -1.8,-3.9 -2.2,-6 -0.5,-2.8 -0.7,-5.8 -0.7,-8.6 0,-1.9 -0.1,-3.7 -0.1,-5.6 v -9.6 -15.2 h -15.2 v 25.9 c 0,2.5 0,5 0.1,7.5 0.1,1.8 0.1,3.7 0.3,5.5 0.4,4.3 1.2,8.5 3.1,12.5 4,8.1 11.8,12.8 20.5,13.8 4.3,0.5 8.7,0.1 12.8,-1.1 4,-1.2 8.2,-3.2 11.1,-6.3 0.1,2 0.3,4.2 0.4,6.2 h 13.3 v -64 h -15.2 z"
   id="path45" />
	<path
   class="st0"
   d="m 1307.4,547.9 c -2.2,-6.2 -7.6,-10 -13.3,-12.2 -3.2,-1.3 -6.5,-2 -9.8,-2.8 -1.5,-0.3 -2.9,-0.6 -4.4,-1 -1.2,-0.3 -2.5,-0.7 -3.7,-1.2 -1.3,-0.6 -2.6,-1.3 -3.5,-2.4 -0.8,-0.9 -1.2,-2.1 -1,-3.3 0.2,-1.4 1,-2.6 2.1,-3.5 0.8,-0.6 1.6,-1.1 2.5,-1.4 1.2,-0.5 2.4,-0.7 3.6,-0.9 2.5,-0.3 5,-0.1 7.4,0.4 3.7,0.8 7.1,2.2 10.3,4.2 2.5,-3.5 5.1,-6.9 7.6,-10.4 -5.1,-3.7 -10.8,-6 -17,-7 -3.5,-0.5 -7,-0.6 -10.4,-0.1 -2.7,0.4 -5.3,1 -7.8,2.1 -3.3,1.4 -6.3,3.4 -8.6,6.3 -1.7,2 -2.9,4.4 -3.6,6.9 -0.9,3.1 -0.9,6.4 0.1,9.6 0.9,2.9 2.6,5.3 4.8,7.3 4.7,4.1 11.4,5.6 17.1,6.8 2,0.4 4,0.8 6,1.4 1.6,0.5 3.3,1 4.7,1.9 1.1,0.7 2.2,1.6 2.9,2.7 0.6,1 0.9,2.1 0.8,3.2 -0.1,1.1 -0.5,2 -1.2,2.9 -0.8,1 -1.8,1.7 -2.9,2.3 -1.5,0.7 -3.1,1.1 -4.7,1.3 -2.2,0.3 -4.6,0.2 -6.8,-0.1 -2.5,-0.3 -4.8,-0.9 -7.2,-1.7 -3.6,-1.3 -6.7,-3.2 -9.7,-5.5 -2.7,3.6 -5.4,7.2 -8.1,10.8 4.8,4 10.3,6.9 16.3,8.7 3.3,0.9 6.7,1.5 10.2,1.6 2.8,0.1 5.5,-0.1 8.3,-0.5 3.5,-0.6 7,-1.7 10.1,-3.6 2.3,-1.4 4.2,-3.1 5.9,-5.2 2.1,-2.7 3.4,-5.9 3.9,-9.3 0.3,-2.8 0.1,-5.6 -0.9,-8.3 z"
   id="path47" />
	<path
   class="st0"
   d="m 1038.3,559 c -3.5,0.8 -7.3,0.7 -10.8,-0.4 -3.5,-1.1 -6.5,-3.3 -8.7,-6.3 -2.1,-3 -3.2,-6.6 -3.4,-10.2 -0.2,-3.6 0.5,-7.4 2.2,-10.6 1.8,-3.4 4.4,-5.7 7.9,-7.2 1.5,-0.6 3,-1.1 4.6,-1.3 2.1,-0.3 4,-0.4 6.1,-0.1 3.7,0.4 7.1,1.8 10.2,3.8 3.1,-3.9 6.1,-7.8 9.2,-11.6 -5.3,-4.2 -11.3,-6.6 -17.9,-7.3 -6.5,-0.7 -13.2,0.3 -19.2,3.1 -6,2.9 -10.8,7.4 -14,13.3 -3.1,5.8 -4.4,12.5 -4.1,19 0.3,6.5 2.3,13 6.1,18.4 3.8,5.5 9.2,9.4 15.5,11.5 6.2,2.1 13,2.5 19.4,1.1 6.4,-1.4 12.4,-4.5 17,-9.3 -3.5,-3.6 -6.9,-7.2 -10.4,-10.8 -2.9,2.4 -6.2,4.1 -9.7,4.9 z"
   id="path49" />
	<rect
   class="st0"
   x="1147"
   y="475"
   width="16"
   height="98"
   id="rect51" />
	<path
   class="st0"
   d="m 1114.2,539.2 c 0,1.8 0,3.6 -0.1,5.3 -0.1,1.1 -0.2,2.3 -0.4,3.4 -0.4,2.1 -1.1,4.1 -2.2,5.9 -2.8,4.4 -7.8,6.6 -12.8,6.7 -5.1,0.1 -10,-2 -12.7,-6.6 -1.1,-1.9 -1.8,-3.9 -2.2,-6 -0.5,-2.8 -0.7,-5.8 -0.7,-8.6 0,-1.9 -0.1,-3.7 -0.1,-5.6 v -9.6 -15.2 h -15.2 v 25.9 c 0,2.5 0,5 0.1,7.5 0.1,1.8 0.1,3.7 0.3,5.5 0.4,4.3 1.2,8.5 3.1,12.5 4,8.1 11.8,12.8 20.5,13.8 4.3,0.5 8.7,0.1 12.8,-1.1 4,-1.2 8.2,-3.2 11.1,-6.3 0.1,2 0.3,4.2 0.4,6.2 h 12.9 v -64 h -14.8 z"
   id="path53" />
</g>
</svg>